<svg width="264" height="17" viewBox="0 0 264 17" fill="none" xmlns="http://www.w3.org/2000/svg">
<path d="M84.3183 15.9078C83.6487 16.2547 82.1702 16.6218 80.2985 16.6218C75.3548 16.6218 72.3516 13.5036 72.3516 8.76772C72.3516 3.63854 75.9095 0.54248 80.6696 0.54248C82.5413 0.54248 83.8786 0.93579 84.4575 1.2343L83.8342 3.49937C83.094 3.17665 82.0794 2.89831 80.7866 2.89831C77.6199 2.89831 75.3327 4.88504 75.3327 8.62855C75.3327 12.0473 77.3416 14.2418 80.7624 14.2418C81.9161 14.2418 83.1182 14.0099 83.8564 13.6649L84.3203 15.9078H84.3183Z" fill="white"/>
<path d="M99.9579 8.4208C99.9579 13.6407 96.7932 16.6218 92.4951 16.6218C88.1969 16.6218 85.3328 13.2716 85.3328 8.69915C85.3328 4.12665 88.3381 0.54248 92.727 0.54248C97.116 0.54248 99.9579 3.98546 99.9579 8.4208ZM88.3381 8.65275C88.3381 11.8174 89.9315 14.3588 92.6564 14.3588C95.3814 14.3588 96.9526 11.7932 96.9526 8.53577C96.9526 5.60308 95.4983 2.80755 92.6564 2.80755C89.8145 2.80755 88.3381 5.44172 88.3381 8.65275Z" fill="white"/>
<path d="M115.551 10.0143C115.458 8.00538 115.343 5.57895 115.366 3.45305H115.295C114.787 5.3712 114.139 7.4729 113.448 9.43542L111.184 16.1822H108.99L106.91 9.5282C106.311 7.54147 105.755 5.41759 105.339 3.45305H105.293C105.222 5.51037 105.129 7.98117 105.015 10.1071L104.67 16.3678H102.011L103.05 0.796694H106.793L108.827 7.0574C109.379 8.88276 109.865 10.7303 110.259 12.4629H110.327C110.743 10.7767 111.275 8.86058 111.876 7.03319L114.022 0.794678H117.719L118.621 16.3658H115.85L115.549 10.0123L115.551 10.0143Z" fill="white"/>
<path d="M134.658 10.0143C134.565 8.00538 134.45 5.57895 134.472 3.45305H134.404C133.896 5.3712 133.248 7.4729 132.554 9.43542L130.291 16.1822H128.097L126.017 9.5282C125.416 7.54147 124.864 5.41759 124.448 3.45305H124.402C124.331 5.51037 124.24 7.98117 124.125 10.1071L123.778 16.3678H121.122L122.161 0.796694H125.904L127.937 7.0574C128.492 8.88276 128.976 10.7303 129.37 12.4629H129.44C129.856 10.7767 130.386 8.86058 130.987 7.03319L133.135 0.794678H136.832L137.734 16.3658H134.963L134.662 10.0123L134.658 10.0143Z" fill="white"/>
<path d="M143.434 0.796631V9.87707C143.434 12.9267 144.705 14.3346 146.623 14.3346C148.68 14.3346 149.905 12.9267 149.905 9.87707V0.796631H152.747V9.69151C152.747 14.496 150.274 16.6219 146.53 16.6219C142.787 16.6219 140.594 14.6129 140.594 9.7137V0.796631H143.434Z" fill="white"/>
<path d="M156.002 16.3677V0.796631H159.237L163.257 7.47283C164.298 9.20542 165.197 11.0086 165.911 12.6948H165.958C165.772 10.6153 165.705 8.60436 165.705 6.22634V0.796631H168.338V16.3677H165.405L161.339 9.50796C160.344 7.82177 159.304 5.90362 158.541 4.14885L158.473 4.17104C158.588 6.17995 158.612 8.23525 158.612 10.8008V16.3677H156H156.002Z" fill="white"/>
<path d="M174.459 0.796631V16.3677H171.617V0.796631H174.459Z" fill="white"/>
<path d="M188.876 15.9078C188.207 16.2547 186.724 16.6218 184.855 16.6218C179.911 16.6218 176.908 13.5036 176.908 8.76772C176.908 3.63854 180.464 0.54248 185.226 0.54248C187.095 0.54248 188.437 0.93579 189.012 1.2343L188.388 3.49937C187.648 3.17665 186.634 2.89831 185.339 2.89831C182.172 2.89831 179.885 4.88504 179.885 8.62855C179.885 12.0473 181.896 14.2418 185.317 14.2418C186.468 14.2418 187.672 14.0099 188.411 13.6649L188.874 15.9078H188.876Z" fill="white"/>
<path d="M194.581 11.9566L193.241 16.3677H190.307L195.297 0.796631H198.923L203.984 16.3677H200.934L199.524 11.9566H194.581ZM199.038 9.8085L197.816 5.9722C197.513 5.02623 197.259 3.96329 197.029 3.0617H196.983C196.751 3.96329 196.523 5.0464 196.245 5.9722L195.045 9.8085H199.04H199.038Z" fill="white"/>
<path d="M207.263 3.17667H202.826V0.796631H214.587V3.17667H210.105V16.3677H207.263V3.17667Z" fill="white"/>
<path d="M219.252 0.796631V16.3677H216.412V0.796631H219.252Z" fill="white"/>
<path d="M236.326 8.4208C236.326 13.6407 233.159 16.6218 228.863 16.6218C224.567 16.6218 221.701 13.2716 221.701 8.69915C221.701 4.12665 224.704 0.54248 229.095 0.54248C233.486 0.54248 236.326 3.98546 236.326 8.4208ZM224.704 8.65275C224.704 11.8174 226.298 14.3588 229.025 14.3588C231.752 14.3588 233.321 11.7932 233.321 8.53577C233.321 5.60308 231.866 2.80755 229.025 2.80755C226.183 2.80755 224.704 5.44172 224.704 8.65275Z" fill="white"/>
<path d="M238.771 16.3677V0.796631H242.006L246.026 7.47283C247.064 9.20542 247.966 11.0086 248.682 12.6948H248.728C248.545 10.6153 248.474 8.60436 248.474 6.22634V0.796631H251.108V16.3677H248.172L244.107 9.50796C243.115 7.82177 242.072 5.90362 241.312 4.14885L241.241 4.17104C241.358 6.17995 241.383 8.23525 241.383 10.8008V16.3677H238.769H238.771Z" fill="white"/>
<path d="M254.317 13.2716C255.241 13.8041 256.629 14.266 258.085 14.266C259.908 14.266 260.927 13.4108 260.927 12.1401C260.927 10.9622 260.14 10.2684 258.154 9.55232C255.588 8.62855 253.95 7.26507 253.95 5.02421C253.95 2.48281 256.074 0.54248 259.449 0.54248C261.133 0.54248 262.381 0.911588 263.19 1.32709L262.498 3.61434C261.944 3.31583 260.856 2.87411 259.402 2.87411C257.601 2.87411 256.814 3.84427 256.814 4.74788C256.814 5.94798 257.716 6.50265 259.793 7.31146C262.498 8.32802 263.815 9.6915 263.815 11.9324C263.815 14.4274 261.919 16.6198 257.899 16.6198C256.26 16.6198 254.549 16.1357 253.694 15.6275L254.315 13.2696L254.317 13.2716Z" fill="white"/>
<path fill-rule="evenodd" clip-rule="evenodd" d="M5.25884 16.3031V5.27826H0.81543V0.69165H15.9347V5.27826H11.6224V16.3031H5.25884Z" fill="white"/>
<path fill-rule="evenodd" clip-rule="evenodd" d="M35.4268 16.3031V5.27826H30.9834V0.69165H46.1027V5.27826H41.7884V16.3031H35.4268Z" fill="white"/>
<path fill-rule="evenodd" clip-rule="evenodd" d="M14.4905 16.3234L20.2086 0.71198L26.7154 0.709961L32.7865 16.3234H26.6549L23.4963 6.88394L20.3498 16.3234H14.4905Z" fill="white"/>
<path fill-rule="evenodd" clip-rule="evenodd" d="M44.6443 16.3194L50.3584 0.709961H56.7966L62.9403 16.3194H56.8067L53.7207 6.88394L50.4996 16.3194H44.6443Z" fill="white"/>
</svg>
