<?xml version="1.0" standalone="no"?>
<!DOCTYPE svg PUBLIC "-//W3C//DTD SVG 20010904//EN"
 "http://www.w3.org/TR/2001/REC-SVG-20010904/DTD/svg10.dtd">
<svg version="1.0" xmlns="http://www.w3.org/2000/svg"
 width="372.000000pt" height="136.000000pt" viewBox="0 0 372.000000 136.000000"
 preserveAspectRatio="xMidYMid meet">
<metadata>
Created by potrace 1.16, written by Peter Selinger 2001-2019
</metadata>
<g transform="translate(0.000000,136.000000) scale(0.100000,-0.100000)"
fill="#000000" stroke="none">
<path d="M0 921 l0 -439 23 -5 c69 -17 463 -91 647 -121 1344 -222 2326 -170
2795 147 88 60 150 121 206 205 l49 74 0 289 0 289 -1860 0 -1860 0 0 -439z
m340 59 l0 -80 110 0 110 0 0 80 0 80 35 0 35 0 0 -195 0 -195 -35 0 -35 0 0
85 0 85 -110 0 -110 0 0 -85 0 -85 -37 0 -38 0 3 195 3 195 34 0 35 0 0 -80z
m2200 -115 l0 -195 -35 0 -35 0 0 195 0 195 35 0 35 0 0 -195z m830 135 c0
-39 1 -40 35 -40 31 0 35 -3 35 -25 0 -22 -4 -25 -35 -25 l-36 0 3 -92 3 -93
33 -3 c26 -3 32 -8 32 -27 0 -29 -27 -40 -76 -31 -53 10 -64 36 -64 148 0 98
0 98 -25 98 -20 0 -25 5 -25 25 0 20 5 25 25 25 23 0 25 4 25 40 0 39 1 40 35
40 34 0 35 -1 35 -40z m-2445 -44 c18 -8 38 -23 44 -34 6 -12 11 -73 11 -136
l0 -116 -30 0 c-16 0 -30 4 -30 9 0 6 -16 3 -35 -5 -83 -34 -178 -5 -190 59
-13 69 29 105 134 114 81 7 109 25 76 50 -20 15 -102 14 -151 -2 -15 -5 -23 0
-32 19 -11 25 -10 26 36 40 61 19 124 20 167 2z m373 -6 c44 -27 52 -54 52
-176 l0 -104 -35 0 -35 0 0 104 c0 82 -3 108 -16 120 -18 19 -72 21 -109 4
-25 -11 -25 -13 -25 -120 l0 -108 -35 0 -35 0 0 145 0 145 29 0 c16 0 31 -5
33 -11 2 -6 14 -5 33 5 41 22 103 20 143 -4z m312 10 c20 -5 43 -15 53 -22 15
-12 15 -15 -1 -36 -17 -22 -19 -22 -47 -8 -39 21 -109 21 -125 1 -20 -24 -2
-35 76 -46 111 -17 148 -56 119 -125 -26 -63 -143 -85 -232 -44 -48 21 -50 26
-28 57 l16 22 32 -19 c53 -33 157 -23 157 15 0 15 -42 30 -114 40 -52 7 -106
48 -106 80 0 72 97 114 200 85z m365 -4 c18 -8 38 -23 44 -34 6 -12 11 -73 11
-136 l0 -116 -30 0 c-16 0 -30 4 -30 9 0 6 -17 3 -37 -6 -58 -24 -140 -14
-170 21 -14 16 -23 40 -23 59 1 60 38 86 140 94 78 7 100 21 74 48 -14 14 -29
16 -73 12 -31 -3 -65 -8 -77 -12 -15 -5 -23 0 -32 19 -6 14 -11 26 -9 26 1 0
20 7 42 15 52 18 127 19 170 1z m364 -4 c56 -28 76 -64 76 -136 0 -71 -17
-106 -68 -136 -39 -24 -106 -26 -147 -5 l-30 16 0 -66 0 -66 -32 3 -33 3 -3
198 -2 197 34 0 c19 0 36 -5 38 -11 2 -6 14 -5 33 5 39 21 92 20 134 -2z m496
4 c18 -8 38 -23 44 -34 6 -12 11 -73 11 -136 l0 -116 -30 0 c-16 0 -30 4 -30
9 0 6 -17 3 -37 -6 -58 -24 -140 -14 -170 21 -24 28 -30 74 -13 105 13 26 57
41 136 49 61 6 69 10 72 29 3 17 -3 24 -23 29 -26 6 -91 1 -132 -11 -16 -5
-24 -1 -33 15 -14 26 -12 28 37 45 50 18 125 19 168 1z m315 4 c20 -5 43 -15
53 -22 15 -12 15 -15 -2 -37 -17 -22 -19 -23 -49 -7 -34 17 -99 21 -121 7 -19
-12 -7 -40 21 -45 13 -2 50 -9 82 -15 74 -13 96 -32 96 -83 0 -64 -49 -98
-143 -98 -56 0 -137 31 -137 51 0 7 7 20 16 30 15 17 17 17 47 -2 40 -24 119
-26 142 -3 25 25 0 43 -72 54 -77 11 -121 33 -129 67 -21 83 79 136 196 103z"/>
<path d="M2205 898 c-30 -17 -35 -28 -35 -85 0 -69 22 -93 84 -93 27 0 52 7
65 18 45 36 35 143 -16 163 -32 12 -74 11 -98 -3z"/>
<path d="M3712 613 c-4 -25 -127 -145 -193 -188 -301 -201 -819 -289 -1551
-264 -502 17 -1149 100 -1781 227 l-188 38 3 -30 c3 -30 4 -31 138 -63 1366
-334 2589 -420 3215 -226 116 35 253 106 314 160 l52 48 -3 155 c-2 85 -5 150
-6 143z"/>
</g>
</svg>
