<?xml version="1.0" standalone="no"?>
<!DOCTYPE svg PUBLIC "-//W3C//DTD SVG 20010904//EN"
 "http://www.w3.org/TR/2001/REC-SVG-20010904/DTD/svg10.dtd">
<svg version="1.0" xmlns="http://www.w3.org/2000/svg"
 width="324.000000pt" height="113.000000pt" viewBox="0 0 324.000000 113.000000"
 preserveAspectRatio="xMidYMid meet">

<g transform="translate(0.000000,113.000000) scale(0.100000,-0.100000)"
fill="#000000" stroke="none">
<path d="M415 782 c-98 -32 -175 -141 -175 -247 0 -141 124 -265 265 -265 92
0 183 56 230 142 25 44 30 64 30 123 0 59 -5 79 -30 124 -65 117 -191 166
-320 123z m193 -41 c80 -41 125 -116 125 -206 0 -89 -45 -165 -123 -205 -39
-20 -100 -35 -100 -25 0 4 24 49 53 100 49 88 54 94 87 97 26 2 38 10 53 36
l19 32 -89 0 c-87 0 -89 0 -106 -29 -23 -39 -22 -39 17 -43 l33 -3 -48 -85
c-27 -47 -55 -89 -63 -94 -18 -12 -70 9 -114 48 -98 86 -104 232 -13 329 25
27 79 62 86 55 2 -2 -11 -28 -29 -58 -18 -30 -49 -85 -70 -122 l-38 -68 90 0
c96 0 87 -5 120 63 2 4 -26 7 -62 7 -36 0 -66 3 -66 6 0 3 25 49 56 101 l56
95 44 -6 c24 -3 61 -14 82 -25z"/>
<path d="M2140 603 c-7 -32 -18 -84 -25 -116 -12 -51 -12 -59 1 -64 23 -9 29
4 52 117 27 126 27 120 3 120 -16 0 -22 -11 -31 -57z"/>
<path d="M975 638 c-5 -15 -45 -205 -45 -213 0 -3 29 -5 64 -5 55 0 64 3 69
20 5 18 0 20 -40 20 -37 0 -44 3 -39 18 2 9 10 44 16 77 6 33 14 68 16 78 4
12 0 17 -16 17 -11 0 -23 -6 -25 -12z"/>
<path d="M1146 631 c-10 -11 -16 -31 -14 -47 2 -20 -5 -36 -24 -55 -33 -32
-36 -61 -9 -88 16 -16 33 -19 95 -18 77 1 85 4 65 24 -8 8 -7 17 5 34 9 13 16
31 16 41 0 24 -27 23 -35 -2 -8 -25 -21 -26 -34 -1 -9 15 -6 22 14 35 31 21
34 70 6 86 -30 16 -66 12 -85 -9z m69 -21 c8 -13 -13 -40 -31 -40 -14 0 -19
31 -7 43 10 10 31 8 38 -3z m-32 -119 c17 -29 17 -30 -2 -36 -24 -7 -61 10
-61 28 0 16 20 37 35 37 6 0 18 -13 28 -29z"/>
<path d="M1297 630 c-4 -17 0 -20 24 -20 34 0 35 -8 14 -95 -19 -81 -19 -95 5
-95 20 0 27 17 50 133 11 56 12 57 46 57 27 0 34 4 34 20 0 18 -7 20 -84 20
-75 0 -84 -2 -89 -20z"/>
<path d="M1596 629 c-33 -142 -43 -200 -34 -205 19 -12 36 6 43 45 4 23 11 44
16 47 17 10 37 -16 44 -57 6 -33 11 -39 31 -39 13 0 24 1 24 3 0 1 -7 27 -15
57 -9 35 -11 56 -5 58 37 13 53 69 26 91 -8 7 -39 15 -70 18 -52 5 -55 4 -60
-18z m94 -37 c0 -23 -19 -42 -42 -42 -13 0 -18 8 -18 30 0 27 3 30 30 30 22 0
30 -5 30 -18z"/>
<path d="M2253 623 c-7 -2 -13 -11 -13 -18 0 -7 -9 -15 -20 -18 -24 -6 -27
-27 -4 -27 16 0 15 -7 -3 -86 -6 -26 23 -56 50 -52 24 4 36 28 13 28 -17 0
-20 26 -10 79 4 21 12 31 24 31 10 0 20 7 24 15 4 10 -1 15 -15 15 -16 0 -19
4 -14 20 6 20 -5 25 -32 13z"/>
<path d="M1785 567 c-34 -29 -45 -95 -20 -120 32 -33 115 -34 115 -2 0 11 -8
13 -30 9 -29 -6 -60 8 -60 27 0 4 26 9 58 11 54 3 57 4 60 31 7 62 -70 90
-123 44z m83 -29 c3 -15 -4 -18 -32 -18 -38 0 -44 8 -24 28 17 17 52 11 56
-10z"/>
<path d="M1967 583 c-17 -16 -4 -28 30 -28 28 0 38 -5 41 -17 3 -15 -4 -18
-35 -18 -62 0 -95 -39 -67 -79 17 -23 53 -28 73 -8 11 10 14 10 18 0 11 -31
31 -10 42 44 14 73 14 79 -5 97 -15 16 -84 22 -97 9z m63 -96 c0 -18 -21 -37
-41 -37 -26 0 -32 16 -13 34 19 19 54 21 54 3z"/>
<path d="M2331 578 c0 -7 6 -47 14 -88 14 -79 9 -100 -25 -100 -24 0 -34 -29
-13 -37 29 -11 67 21 111 97 24 41 53 90 64 108 l20 32 -24 0 c-18 0 -30 -12
-53 -55 -17 -30 -33 -55 -37 -55 -5 0 -8 15 -8 33 0 51 -11 77 -31 77 -11 0
-19 -6 -18 -12z"/>
</g>
</svg>
